HIERARCHY
ROOT Hips
{
	OFFSET 0.000000 0.000000 0.000000 
	CHANNELS 6 Xposition Yposition Zposition Yrotation Zrotation Xrotation 
	JOINT Lumbar
	{
		OFFSET 0.000000 0.000000 0.000000 
		CHANNELS 3 Zrotation Xrotation Yrotation
		JOINT Neck
		{
			OFFSET 0.000000 0.445665 0.000000 
			CHANNELS 3 Zrotation Xrotation Yrotation
			End Site
			{
				OFFSET 0.000000 0.227535 0.000000 
			}
		}
		JOINT RightShoulder
		{
			OFFSET 0.019635 0.377685 0.194865 
			CHANNELS 3 Zrotation Xrotation Yrotation
			JOINT RightElbow
			{
				OFFSET 0.000000 -0.243375 0.000000 
				CHANNELS 2 Zrotation Yrotation
				JOINT RightWrist
				{
					OFFSET 0.000000 -0.264825 0.000000 
					CHANNELS 2 Zrotation Xrotation
					End Site
					{
						OFFSET 0.006600 -0.176220 0.000990 
					}
				}
			}
		}
		JOINT LeftShoulder
		{
			OFFSET 0.019635 0.377685 -0.194865 
			CHANNELS 3 Zrotation Xrotation Yrotation
			JOINT LeftElbow
			{
				OFFSET 0.000000 -0.243375 0.000000 
				CHANNELS 2 Zrotation Yrotation
				JOINT LeftWrist
				{
					OFFSET 0.000000 -0.264825 0.000000 
					CHANNELS 2 Zrotation Xrotation
					End Site
					{
						OFFSET 0.006600 -0.176220 -0.000990 
					}
				}
			}
		}
	}
	JOINT RightHip
	{
		OFFSET 0.052140 -0.069960 0.075570 
		CHANNELS 3 Zrotation Xrotation Yrotation
		JOINT RightKnee
		{
			OFFSET 0.000000 -0.402270 0.000000 
			CHANNELS 1 Zrotation
			JOINT RightAnkle
			{
				OFFSET 0.000000 -0.404085 0.000000 
				CHANNELS 3 Zrotation Xrotation Yrotation
				End Site
				{
					OFFSET 0.204105 -0.089430 0.008415 
				}
			}
		}
	}
	JOINT LeftHip
	{
		OFFSET 0.052140 -0.069960 -0.075570 
		CHANNELS 3 Zrotation Xrotation Yrotation
		JOINT LeftKnee
		{
			OFFSET 0.000000 -0.402270 0.000000 
			CHANNELS 1 Zrotation
			JOINT LeftAnkle
			{
				OFFSET 0.000000 -0.404085 0.000000 
				CHANNELS 3 Zrotation Xrotation Yrotation
				End Site
				{
					OFFSET 0.204105 -0.089430 -0.008415 
				}
			}
		}
	}
}
MOTION
Frames: 14
Frame Time: 0.02
0.41161 0.71358 -0.03224 185.36143 0 -5.41841 -1.24964 6.90167 0.30463 -6.15736 -14.34775 -6.5606 6.83606 -4.73624 20.64514 132.27486 124.16129 -54.10446 -7.90993 32.42863 25.57896 -22.83367 135.0794 -122.25605 -60.01295 7.44015 64.31929 4.08764 -11.12478 -87.58234 -0.16415 -0.80492 4.68631 67.86527 -2.56602 -5.00367 -93.74482 -0.29429 1.32979 -2.90359
0.41178 0.71328 -0.03242 185.39038 0 -5.42064 -1.08261 6.82609 0.3307 -5.78021 -13.96905 -6.34338 6.41001 -4.7926 20.6201 132.39511 123.95356 -53.5048 -7.98812 31.82299 25.15618 -23.35638 135.35728 -121.16537 -60.48443 7.31955 64.30323 4.03728 -11.27992 -87.5968 -0.06633 -0.85096 4.49264 67.91081 -2.59457 -5.03791 -93.779 -0.31414 1.32986 -2.92208
0.41185 0.71304 -0.03273 185.41051 0 -5.41835 -0.88676 6.69534 0.30545 -5.632 -13.2118 -6.10118 6.48639 -5.06113 20.61063 132.57195 123.76929 -52.84191 -8.08997 31.51838 24.57178 -24.23825 135.8176 -119.3688 -61.18369 7.13418 64.27479 4.00772 -11.43102 -87.6003 0.04559 -0.90117 4.28232 67.94961 -2.59016 -5.05992 -93.80982 -0.33481 1.32101 -2.97023
0.41197 0.71278 -0.03296 185.43259 0 -5.41884 -0.70162 6.58911 0.29827 -5.40295 -12.61246 -5.86811 6.3813 -5.25636 20.59987 132.71738 123.58049 -52.23776 -8.17426 31.09632 24.05191 -24.91987 136.17677 -117.91765 -61.76455 7.02767 64.25352 3.97273 -11.57523 -87.60767 0.14649 -0.94671 4.09088 67.99123 -2.59941 -5.08743 -93.8415 -0.35614 1.31641 -3.00428
0.41207 0.71248 -0.03323 185.46342 0 -5.41612 -0.52703 6.48446 0.31329 -5.0731 -12.06504 -5.6395 6.07321 -5.36098 20.5622 132.8884 123.35787 -51.48944 -8.28493 30.57861 23.56146 -25.75495 136.61007 -116.35208 -62.41191 6.72561 64.22577 3.92027 -11.757 -87.62005 0.2674 -1.00409 3.85122 68.03395 -2.61443 -5.11451 -93.87628 -0.37261 1.3117 -3.03887
0.41218 0.71228 -0.03347 185.47427 0 -5.41906 -0.32363 6.36382 0.26999 -5.00879 -11.32332 -5.39722 6.30541 -5.69995 20.58244 133.01936 123.21312 -51.0293 -8.34754 30.3341 22.97411 -26.35679 136.93278 -114.87079 -62.97301 6.79993 64.20864 3.90932 -11.85924 -87.6197 0.35019 -1.03783 3.7078 68.0729 -2.60997 -5.14028 -93.90401 -0.39951 1.30468 -3.08079
0.41237 0.71235 -0.03357 185.42746 0 -5.43904 -0.04549 6.21112 0.07678 -5.62004 -10.12767 -5.12764 7.9537 -6.66005 20.7922 133.02116 123.29199 -51.42644 -8.26638 30.80607 22.16384 -26.22789 136.9142 -113.67105 -63.24598 8.06141 64.22282 4.00814 -11.74353 -87.58138 0.31925 -1.00455 3.83895 68.10126 -2.55407 -5.16001 -93.90913 -0.45569 1.29515 -3.12862
0.41258 0.71252 -0.03362 185.36161 0 -5.46489 0.26023 6.04458 -0.17292 -6.49103 -8.75241 -4.84531 10.12028 -7.84316 21.05347 132.98155 123.44675 -52.10942 -8.13684 31.53844 21.26207 -25.85298 136.77767 -112.59948 -63.42304 9.6805 64.24832 4.14809 -11.54779 -87.53152 0.25025 -0.94751 4.06657 68.12634 -2.48057 -5.17995 -93.90793 -0.52217 1.28313 -3.18452
0.41277 0.71263 -0.03369 185.30751 0 -5.48786 0.55206 5.88537 -0.39612 -7.24493 -7.46689 -4.56653 12.02091 -8.90657 21.27108 132.96335 123.55909 -52.6356 -8.03373 32.1305 20.39987 -25.58918 136.68893 -111.5556 -63.63941 11.04738 64.26931 4.26906 -11.38801 -87.49038 0.20186 -0.90171 4.2473 68.15414 -2.4189 -5.20332 -93.91215 -0.58377 1.27117 -3.24134
0.413 0.7128 -0.03377 185.24022 0 -5.51145 0.851 5.71982 -0.62543 -8.0039 -6.13367 -4.29553 14.07008 -10.05508 21.57794 132.93513 123.70685 -53.27638 -7.9145 32.82518 19.53973 -25.33703 136.62785 -110.14105 -63.8807 12.78497 64.28714 4.39178 -11.22939 -87.43415 0.14007 -0.85391 4.44113 68.17667 -2.34033 -5.21116 -93.90553 -0.6468 1.26374 -3.27903
0.41315 0.71286 -0.03383 185.19577 0 -5.53535 1.14082 5.56495 -0.85375 -8.80958 -4.86224 -4.00655 15.92292 -11.07635 21.70681 132.91854 123.79695 -53.74267 -7.81475 33.36451 18.65652 -25.00221 136.48278 -109.51713 -64.04576 13.84338 64.31445 4.52056 -11.04995 -87.40682 0.09688 -0.80492 4.62973 68.20927 -2.2927 -5.25181 -93.92002 -0.70857 1.24603 -3.35906
0.41308 0.71263 -0.03384 185.221 0 -5.5574 1.40247 5.4429 -1.07438 -9.69133 -3.80701 -3.66352 17.13471 -11.69213 21.36827 132.93181 123.72361 -53.6994 -7.80085 33.40606 17.72687 -24.45538 136.09826 -111.23478 -64.00898 12.87785 64.36474 4.65401 -10.82813 -87.46145 0.11471 -0.75552 4.78983 68.27229 -2.33903 -5.38049 -93.99422 -0.77081 1.20373 -3.54503
0.41293 0.71229 -0.03384 185.26959 0 -5.57984 1.65296 5.33246 -1.29039 -10.60751 -2.82236 -3.3043 18.12331 -12.17115 20.84288 132.95989 123.58689 -53.46441 -7.80482 33.28133 16.77952 -23.83883 135.6382 -113.71543 -63.89958 11.22873 64.42425 4.79222 -10.58908 -87.5456 0.15234 -0.70624 4.93983 68.34521 -2.41643 -5.54243 -94.08977 -0.83036 1.15072 -3.77441
0.4128 0.712 -0.03384 185.30623 0 -5.60294 1.90621 5.21686 -1.5021 -11.50039 -1.80554 -2.95769 19.1933 -12.71125 20.37768 132.98942 123.46968 -53.28839 -7.78659 33.23509 15.84376 -23.28302 135.23695 -115.7213 -63.83303 9.9322 64.47999 4.92967 -10.36074 -87.61696 0.18068 -0.65889 5.08806 68.41246 -2.47702 -5.69116 -94.1758 -0.88675 1.10038 -3.99027
